<?xml version="1.0" standalone="no"?>
<!DOCTYPE svg PUBLIC "-//W3C//DTD SVG 1.1//EN" "http://www.w3.org/Graphics/SVG/1.1/DTD/svg11.dtd" >
<svg>
<metadata>
Created by FontForge 20090914 at Fri Apr  1 15:27:38 2016
 By www-data
Created with the help of MyScriptFont.com
Copyright belongs to the Creator.
</metadata>
<defs>
<font id="halfvetica" horiz-adv-x="9" >
  <font-face 
    font-family="halfvetica"
    font-weight="500"
    font-stretch="normal"
    units-per-em="1000"
    panose-1="2 0 6 3 0 0 0 0 0 0"
    ascent="800"
    descent="-200"
    x-height="642"
    cap-height="779"
    bbox="9.58141 -76 1010 800.09"
    underline-thickness="50"
    underline-position="-100"
    unicode-range="U+0020-U+20AC"
  />
<missing-glyph horiz-adv-x="364" 
d="M33 0v666h265v-666h-265zM66 33h199v600h-199v-600z" />
    <glyph glyph-name=".notdef" horiz-adv-x="364" 
d="M33 0v666h265v-666h-265zM66 33h199v600h-199v-600z" />
    <glyph glyph-name="space" unicode=" " horiz-adv-x="420" 
 />
    <glyph glyph-name="exclam" unicode="!" horiz-adv-x="98" 
d="M10 795c2 3.33301 14.8301 4.83301 38.4971 4.5s36.834 -2.16602 39.501 -5.49902c2.66699 -4.66699 1.33398 -61.334 -3.99902 -170.001s-9.66602 -167 -12.999 -175c-3.33301 -8.66699 -10.666 -13.667 -21.999 -15s-18.333 1.66699 -21 9
c-2 5.33301 -5.83301 64.5 -11.5 177.5s-7.83398 171.167 -6.50098 174.5z" />
    <glyph glyph-name="quotedbl" unicode="&#x22;" 
 />
    <glyph glyph-name="numbersign" unicode="#" horiz-adv-x="499" 
d="M186 779c4 9.33301 13.9961 13.9961 29.9961 13.9961h1c13.333 0 20.333 -3.66699 21 -11s-3.33301 -34 -12 -80v-3c-8.66699 -46.667 -11.667 -72 -9 -76c2 -4.66699 20.167 -6.66699 54.5 -6s53.166 3.33398 56.499 8.00098c4.66699 4.66699 11.667 32 21 82
c8.66699 48 14.667 75 18 81c2.66699 4.66699 10.5 6.5 23.5 5.5s20.5 -4.16699 22.5 -9.5c2 -4.66699 -1.66699 -32 -11 -82c-9.33301 -48.667 -12 -75 -8 -79c2.66699 -3.33301 19.667 -5.66602 51 -6.99902l45 -2v-46l-53 -2
c-35.333 -1.33301 -55.333 -4.66602 -60 -9.99902c-3.33301 -4.66699 -8.5 -24.5 -15.5 -59.5s-9.5 -54.167 -7.5 -57.5s19.333 -5 52 -5c32 0 48 -2.16699 48 -6.5s-74 -6.5 -222 -6.5s-222 2 -222 6s18 6.66699 54 8l54 2l11 46c7.33301 32 11 53 11 63
c0.666992 9.33301 -1.16602 14.833 -5.49902 16.5s-19.166 2.83398 -44.499 3.50098l-51 2v46l54 2h7c10.667 0 18.334 0.166992 23.001 0.5s9.83398 1.66602 15.501 3.99902s9.33398 4.33301 11.001 6s4 6.16699 7 13.5s5 14 6 20l5.5 32c0.666992 4 1 7.33301 1 10
c8 38.667 13.667 64.334 17 77.001zM314.996 555.996c-2.66699 6 -21.167 9.00098 -55.5 9.00098s-53.5 -2.66699 -57.5 -8c-2 -3.33301 -7.16699 -23.833 -15.5 -61.5s-9.5 -57.167 -3.5 -58.5c5.33301 -2.66699 25 -3.33398 59 -2.00098l52 2l11 55
c8 36.667 11.333 58 10 64z" />
    <glyph glyph-name="dollar" unicode="$" horiz-adv-x="364" 
d="M158.5 782.5c1 7.66699 3 12.502 6 14.502s10.167 3 21.5 3c8 0 13.667 -0.333008 17 -1s5.83301 -2.16699 7.5 -4.5s2.83398 -6.16602 3.50098 -11.499c0.666992 -8 4 -13.5 10 -16.5s22.667 -7.16699 50 -12.5c35.333 -7.33301 56.666 -13.833 63.999 -19.5
s7.66602 -16.167 0.999023 -31.5c-3.33301 -8.66699 -6.5 -14.167 -9.5 -16.5s-6.5 -2.5 -10.5 -0.5c-15.333 5.33301 -35.5 10.166 -60.5 14.499s-38.5 5.16602 -40.5 2.49902c-4 -3.33301 -5.33301 -32 -4 -86l2 -81l42 -17c22.667 -8.66699 45.167 -22.167 67.5 -40.5
s32.166 -31.5 29.499 -39.5c-2.66699 -5.33301 -13.667 -8.66602 -33 -9.99902c-8 -0.666992 -15 -0.5 -21 0.5s-12.167 2.83301 -18.5 5.5s-14.166 7 -23.499 13c-17.333 10.667 -29.166 15.667 -35.499 15s-10.5 -7 -12.5 -19c-1.33301 -8.66699 -9.66602 -13 -24.999 -13
c-10.667 0 -17.334 1.16699 -20.001 3.5s-4.66699 9.66602 -6 21.999s-4.33301 20.833 -9 25.5s-18.334 13 -41.001 25c-28.667 14 -48.5 25.5 -59.5 34.5s-20.5 22.167 -28.5 39.5c-16.667 37.333 -16.167 72 1.5 104s49.167 54.667 94.5 68
c16.667 5.33301 27.334 9.66602 32.001 12.999s7.5 8.83301 8.5 16.5zM159 634.002c-1.33301 29.333 -2.66602 47.499 -3.99902 54.499s-5 10.833 -11 11.5c-8.66699 0.666992 -19.167 -2.33301 -31.5 -9s-20.5 -14 -24.5 -22c-4 -7.33301 -6 -19.166 -6 -35.499
s2 -28.5 6 -36.5c4.66699 -8.66699 16 -17.5 34 -26.5s29 -11.5 33 -7.5c3.33301 4 4.66602 27.667 3.99902 71z" />
    <glyph glyph-name="percent" unicode="%" horiz-adv-x="603" 
d="M34 774l13.001 25.999h161l14 -25c11.333 -19.333 19.166 -46.666 23.499 -81.999s3.83301 -68 -1.5 -98c-3.33301 -24 -8 -44.167 -14 -60.5s-13.667 -29.833 -23 -40.5s-20.333 -18.5 -33 -23.5s-27.667 -7.5 -45 -7.5c-24 0 -43.167 4.5 -57.5 13.5
s-26.833 24.167 -37.5 45.5c-16 33.333 -24 75.833 -24 127.5s8 93.167 24 124.5zM148.001 778.999c-9.33301 4.66699 -15.833 7.00293 -19.5 7.00293s-10.5 -2 -20.5 -6c-14.667 -5.33301 -24.667 -17.333 -30 -36s-8 -51.334 -8 -98.001
c0 -34.667 0.666992 -58.834 2 -72.501s4.66602 -24.834 9.99902 -33.501c6.66699 -12.667 15.334 -21.5 26.001 -26.5s21.667 -5.5 33 -1.5c19.333 7.33301 32.833 22.833 40.5 46.5s10.5 58.5 8.5 104.5c-1.33301 38 -5 65.167 -11 81.5s-16.333 27.833 -31 34.5z
M390.001 733.002l37.001 67.001h59l-19 -34c-0.666992 -1.33301 -7.66699 -14 -21 -38l-40.5 -73.5l-44.5 -80.5l-41.5 -73c-11.667 -20 -19.167 -32 -22.5 -36c-5.33301 -5.33301 -15.333 -9 -30 -11s-23.334 -0.333008 -26.001 5
c-1.33301 3.33301 16.667 38.666 54 105.999l53 94zM436.002 588.003c32 14 63.001 12.332 93.001 -5.00098s50.333 -45 61 -83c4.66699 -18.667 5.5 -31.167 2.5 -37.5s-10.833 -8.83301 -23.5 -7.5c-10 0.666992 -16.667 2.83398 -20 6.50098s-7.33301 12.5 -12 26.5
c-12.667 39.333 -32.334 59 -59.001 59c-26 0 -44 -19.333 -54 -58c-4 -16 -7.5 -25.333 -10.5 -28s-10.833 -4 -23.5 -4c-12 0 -19.167 0.833008 -21.5 2.5s-3.16602 6.16699 -2.49902 13.5c7.33301 60 30.666 98.333 69.999 115z" />
    <glyph glyph-name="ampersand" unicode="&#x26;" horiz-adv-x="1019" 
d="M10 -69.5c0 4.33301 166.667 6.5 500 6.5s500 -2.16699 500 -6.5s-166.667 -6.5 -500 -6.5s-500 2.16699 -500 6.5z" />
    <glyph glyph-name="parenleft" unicode="(" horiz-adv-x="185" 
d="M98 782c6 8 11.833 13 17.5 15s15.167 3 28.5 3h32l-29 -54c-38.667 -73.333 -61 -150 -67 -230l-5 -59h-65l1 55c1.33301 44.667 10.5 93.667 27.5 147s36.833 94.333 59.5 123z" />
    <glyph glyph-name="parenright" unicode=")" horiz-adv-x="185" 
d="M39 746l-29.002 53.999h32c11.333 0 19.333 -0.666992 24 -2s8.83398 -3.66602 12.501 -6.99902s8.83398 -10 15.501 -20c15.333 -22 29 -48.167 41 -78.5s21.5 -62 28.5 -95s10.833 -64.167 11.5 -93.5l1 -47h-65l-5 59c-6.66699 81.333 -29 158 -67 230z" />
    <glyph glyph-name="asterisk" unicode="*" horiz-adv-x="389" 
d="M162 779l-3.00098 21.001h67l-5 -46v-4c-2.66699 -24.667 -1.16699 -38 4.5 -40s26.834 2 63.501 12l9 3c38 10.667 59.667 16 65 16c6 0 10.833 -6.66699 14.5 -20s3.5 -22.333 -0.5 -27c-3.33301 -3.33301 -65 -4.66602 -185 -3.99902l-179 2l-2 16
c-2 18 1.33301 27.833 10 29.5s31.334 -2.5 68.001 -12.5c40 -10.667 64.667 -17 74 -19c2 0 3.33301 3.16699 4 9.5s0.666992 15.166 0 26.499s-2.33398 23.666 -5.00098 36.999z" />
    <glyph glyph-name="plus" unicode="+" horiz-adv-x="398" 
d="M173 714c2 5.33301 11.333 7.33301 28 6l25 -2l6 -163c52.667 -2 105 -4.33301 157 -7v-45c-52 -2.66699 -104.333 -5 -157 -7l-3 -20c-2 -8.66699 -4.5 -14 -7.5 -16s-10.167 -3 -21.5 -3c-8.66699 0 -14.667 0.5 -18 1.5s-5.83301 2.66699 -7.5 5
s-3.16699 6.5 -4.5 12.5l-3 20c-52.667 2 -105 4.33301 -157 7v45c52 2.66699 104.333 5 157 7l2 75c0.666992 50.667 2 78.667 4 84z" />
    <glyph glyph-name="comma" unicode="," horiz-adv-x="117" 
d="M35 310c2.66699 4 14.6621 5.99902 35.9951 5.99902s33.333 -2 36 -6c2 -4 -1.16699 -21.333 -9.5 -52s-16.166 -53 -23.499 -67c-4 -7.33301 -8.16699 -12.166 -12.5 -14.499s-12.166 -3.5 -23.499 -3.5c-17.333 0 -26.666 1.66699 -27.999 5
c-1.33301 2.66699 1.83398 24.167 9.50098 64.5s12.834 62.833 15.501 67.5z" />
    <glyph glyph-name="hyphen" unicode="-" horiz-adv-x="211" 
d="M12 476c2 4.66699 8.66602 7.5 19.999 8.5s37 1.16699 77 0.5c44 -1.33301 70.5 -2.66602 79.5 -3.99902s13.5 -5 13.5 -11s-3.33301 -9.66699 -10 -11c-8 -2 -34.667 -3.33301 -80 -4c-24.667 -0.666992 -43.334 -0.833984 -56.001 -0.500977s-23.167 1.33301 -31.5 3
s-12.666 4 -12.999 7s-0.166016 6.83301 0.500977 11.5z" />
    <glyph glyph-name="period" unicode="." horiz-adv-x="115" 
d="M22 299c9.33301 11.333 21.333 16.9971 36 16.9971c12.667 0 24.167 -5.16699 34.5 -15.5s14.833 -21.166 13.5 -32.499c-1.33301 -6 -4.5 -9.83301 -9.5 -11.5s-17.833 -2.5 -38.5 -2.5c-14.667 0 -25 0.333008 -31 1s-10.167 1.83398 -12.5 3.50098
s-3.83301 4.83398 -4.5 9.50098c-1.33301 8 2.66699 18.333 12 31z" />
    <glyph glyph-name="slash" unicode="/" horiz-adv-x="205" 
d="M70 632l62 168h32c21.333 0 32 -1.33301 32 -4c0 -4.66699 -20.167 -60.5 -60.5 -167.5s-62.166 -162.5 -65.499 -166.5c-4 -4.66699 -14.333 -7.5 -31 -8.5s-26.334 0.833008 -29.001 5.5c-2 4 18 61.667 60 173z" />
    <glyph glyph-name="zero" unicode="0" horiz-adv-x="403" 
d="M97 781c12.667 9.33301 23.8301 14.832 33.4971 16.499s34.167 2.5 73.5 2.5h81l31 -29c55.333 -52 81.333 -139 78 -261l-2 -73h-65l2 53c2 56.667 -3.16699 108.167 -15.5 154.5s-29.166 77.166 -50.499 92.499c-12.667 8.66699 -29.667 13.834 -51 15.501
s-39.666 -1.16602 -54.999 -8.49902c-26 -12 -44.167 -32.5 -54.5 -61.5s-17.166 -76.833 -20.499 -143.5l-4 -102l-27 -2c-14 -0.666992 -23.667 1 -29 5s-9 14 -11 30s-1.66699 40 1 72c6 121.333 34.333 201 85 239z" />
    <glyph glyph-name="one" unicode="1" horiz-adv-x="224" 
d="M85 737c34 26.667 55.833 42.5 65.5 47.5s21.5 7.5 35.5 7.5l29 -2v-359h-58l-2 142c-1.33301 94.667 -3.33301 142 -6 142c-2 0 -20.333 -14 -55 -42l-51 -42l-17 19c-12 12.667 -17.333 21 -16 25c1.33301 3.33301 26.333 24 75 62z" />
    <glyph glyph-name="two" unicode="2" horiz-adv-x="362" 
d="M95 793c12 4.66699 43 6.33398 93 5.00098c26.667 -0.666992 45 -1.33398 55 -2.00098s18.167 -2.33398 24.5 -5.00098s14.5 -7.33398 24.5 -14.001c18 -12.667 33 -29 45 -49c6.66699 -12.667 11 -24 13 -34s2.66699 -26 2 -48c0 -32 -5.16699 -60 -15.5 -84
s-29.5 -52.667 -57.5 -86l-38 -45l-37 -2c-24.667 -1.33301 -37 0.666992 -37 6c0 4 14 21.667 42 53c14.667 15.333 26.667 29.333 36 42s17 25.167 23 37.5s10.333 24.5 13 36.5s4 25.333 4 40c0 18.667 -1.16699 31.834 -3.5 39.501s-7.16602 16.167 -14.499 25.5
c-21.333 24.667 -50.833 37.334 -88.5 38.001s-74.834 -11.333 -111.501 -36l-27 -18l-15 18c-10 11.333 -15 20 -15 26c0 4 10.167 12.667 30.5 26s38.5 23.333 54.5 30z" />
    <glyph glyph-name="three" unicode="3" horiz-adv-x="382" 
d="M81 788c19.333 7.33301 53.001 11.332 101.001 11.999s80.333 -2.33301 97 -9c56 -23.333 84 -66 84 -128c0 -25.333 -2.33301 -44.333 -7 -57s-14.167 -26.334 -28.5 -41.001s-28.166 -24.667 -41.499 -30c-14 -6.66699 -21 -11.667 -21 -15
s9.66699 -7.66602 29 -12.999c15.333 -4.66699 33.166 -16.5 53.499 -35.5s28.833 -31.5 25.5 -37.5c-2.66699 -4.66699 -14.667 -7 -36 -7c-4 0 -7.66699 0.166992 -11 0.5s-6.33301 0.833008 -9 1.5s-5.16699 1.33398 -7.5 2.00098s-4.5 1.66699 -6.5 3l-6 4
c-2 1.33301 -4 3.33301 -6 6c-21.333 22.667 -66.333 36.667 -135 42l-64 4v52l56 4c36.667 2 66 8.33301 88 19c18 8.66699 32.167 21 42.5 37s16 32.167 17 48.5s-2.5 32.333 -10.5 48s-20.333 27.5 -37 35.5c-22.667 11.333 -52.334 14.833 -89.001 10.5
s-68.667 -14.833 -96 -31.5l-22 -13l-16 18c-10 12 -15 19.667 -15 23c0 2 2.16699 5 6.5 9s9.83301 8.16699 16.5 12.5s14.167 8.83301 22.5 13.5s16.833 8.66699 25.5 12z" />
    <glyph glyph-name="four" unicode="4" horiz-adv-x="343" 
d="M250 779c7.33301 10 13.5 16 18.5 18s15.5 2.66699 31.5 2l34 -2v-366h-59l-2 139c-0.666992 92 -3 138 -7 138c-2.66699 0 -8.33398 -6.66699 -17.001 -20c-7.33301 -13.333 -39.666 -60.333 -96.999 -141l-84 -120h-29c-19.333 0 -29 2 -29 6c0 2 16.5 27 49.5 75
l108.5 156z" />
    <glyph glyph-name="five" unicode="5" horiz-adv-x="367" 
d="M34 792c0 0.666992 47.667 0.666992 143 0l142 -2v-52c-76 -2 -152.333 -4.33301 -229 -7l-7 -81c-5.33301 -54.667 -7 -82.834 -5 -84.501s28.667 -3.16699 80 -4.5c35.333 0 58.833 -0.833008 70.5 -2.5s25.834 -6.83398 42.501 -15.501
c25.333 -12 44.333 -25.667 57 -41c9.33301 -11.333 17.333 -25.166 24 -41.499s8 -26.166 4 -29.499c-2.66699 -2.66699 -14.334 -4 -35.001 -4c-14 0 -23.167 1 -27.5 3s-7.5 6 -9.5 12c-3.33301 8 -8.83301 15.833 -16.5 23.5s-17.167 14.5 -28.5 20.5s-23 10.333 -35 13
c-16 4 -42.167 5.5 -78.5 4.5s-60.833 -3.83301 -73.5 -8.5c-6 -2 -14.667 2 -26 12l-16 15l12 134c6.66699 88 10.667 133.333 12 136z" />
    <glyph glyph-name="six" unicode="6" horiz-adv-x="395" 
d="M167 789c18.667 6.66699 52.9971 9.66602 102.997 8.99902l76 -1v-45h-66c-29.333 -0.666992 -49.333 -2 -60 -4s-24 -7.66699 -40 -17c-38.667 -21.333 -66 -56 -82 -104c-3.33301 -10 -6.66602 -24 -9.99902 -42s-5.5 -33 -6.5 -45s-0.5 -19 1.5 -21
c1.33301 0 9.33301 6.66699 24 20c20.667 19.333 47.5 31.333 80.5 36s65.333 1.83398 97 -8.49902s55.5 -26.833 71.5 -49.5c10 -14 18.167 -30 24.5 -48s7.83301 -29.667 4.5 -35c-2.66699 -4.66699 -12.667 -7 -30 -7c-12 0 -20 1.5 -24 4.5s-8.66699 11.167 -14 24.5
c-15.333 33.333 -37.666 54.333 -66.999 63c-33.333 10 -65.166 8.83301 -95.499 -3.5s-52.833 -33.5 -67.5 -63.5c-6.66699 -12 -11.834 -19.167 -15.501 -21.5s-13.167 -2.83301 -28.5 -1.5l-31 2l-2 41c-1.33301 29.333 1.83398 64.166 9.50098 104.499
s17.167 72.5 28.5 96.5c12 24.667 29.667 48.334 53 71.001s45.333 37.667 66 45z" />
    <glyph glyph-name="seven" unicode="7" horiz-adv-x="403" 
d="M12 784c1.33301 4 13.8301 6.50098 37.4971 7.50098s74.834 1.16699 153.501 0.5l189 -2l2 -26c0.666992 -10.667 -3.16602 -27.167 -11.499 -49.5s-26.166 -63.5 -53.499 -123.5c-44.667 -99.333 -69 -151 -73 -155c-3.33301 -4.66699 -14.5 -7.5 -33.5 -8.5
s-29.833 0.833008 -32.5 5.5c-2 2.66699 19 51 63 145c42.667 91.333 64.667 140.333 66 147c0 1.33301 -6 2.66602 -18 3.99902s-29.5 2.5 -52.5 3.5s-50.5 1.83301 -82.5 2.5l-153 3l-2 18c-2 12.667 -1.66699 22 1 28z" />
    <glyph glyph-name="eight" unicode="8" horiz-adv-x="364" 
d="M90 788c17.333 7.33301 48.001 11.332 92.001 11.999s75 -2.66602 93 -9.99902c16.667 -6.66699 31 -16 43 -28s21.167 -26 27.5 -42s9.5 -33 9.5 -51c0 -50.667 -26.667 -93 -80 -127c-12 -6.66699 -18 -12.334 -18 -17.001c0 -2.66699 8 -9.33398 24 -20.001
c10.667 -6 21.667 -13.667 33 -23s21 -18.5 29 -27.5s12 -15.167 12 -18.5c0 -6 -11.667 -9 -35 -9c-22.667 0 -42 5.66699 -58 17c-16 12.667 -34.667 23.667 -56 33l-35 16l-31 -16c-20 -10 -35.333 -21 -46 -33c-6.66699 -6.66699 -13.167 -11.167 -19.5 -13.5
s-15.5 -3.5 -27.5 -3.5c-20.667 0 -32.334 2 -35.001 6s2.5 13.333 15.5 28s27.167 26.667 42.5 36c8 4.66699 15 9.66699 21 15s9 8.66602 9 9.99902c0 4 -8 11.667 -24 23c-15.333 10.667 -29.333 25.834 -42 45.501s-20 38.167 -22 55.5
c-4.66699 28.667 0.333008 56.334 15 83.001s35.667 46.334 63 59.001zM232.001 744.999c-11.333 4.66699 -26.5 7.33496 -45.5 8.00195s-35.833 -1 -50.5 -5c-13.333 -4 -25 -11.333 -35 -22s-17.167 -22.834 -21.5 -36.501s-5.16602 -27.167 -2.49902 -40.5
c2 -9.33301 6.66699 -19 14 -29s16.5 -19.667 27.5 -29s22.5 -17.333 34.5 -24l32 -15l28 13c50.667 26 76 60.667 76 104c0 15.333 -5.33301 30.166 -16 44.499s-24.334 24.833 -41.001 31.5z" />
    <glyph glyph-name="nine" unicode="9" horiz-adv-x="398" 
d="M93 788c8 4.66699 17.999 7.83203 29.999 9.49902s34.333 2.5 67 2.5c42.667 0 71.167 -2.16699 85.5 -6.5s30.166 -15.833 47.499 -34.5c24.667 -25.333 42.667 -61.333 54 -108s14.333 -97.334 9 -152.001l-5 -62h-65l2 32
c0.666992 16.667 -0.666016 26.167 -3.99902 28.5s-9.66602 -1.5 -18.999 -11.5c-13.333 -15.333 -29.333 -26.166 -48 -32.499s-42.667 -9.5 -72 -9.5c-36.667 0 -64 4.66699 -82 14c-56 30 -83.667 84.333 -83 163c0 76.667 27.667 132.334 83 167.001zM257.999 732.998
c-28.667 19.333 -59.6689 25.166 -93.002 17.499s-57.666 -26.167 -72.999 -55.5c-9.33301 -16.667 -14.5 -39.667 -15.5 -69s2.16699 -52.666 9.5 -69.999c10 -24.667 28.333 -42.334 55 -53.001s55.334 -12 86.001 -4c33.333 8.66699 59 26.334 77 53.001
c16.667 24 20 55.667 10 95s-28.667 68 -56 86z" />
    <glyph glyph-name="colon" unicode=":" horiz-adv-x="117" 
d="M25 656c14.667 16 32.1689 18.832 52.502 8.49902s30.5 -27.166 30.5 -50.499s-9 -39.833 -27 -49.5s-35.333 -7.5 -52 6.5c-10.667 8 -16.334 21.5 -17.001 40.5s3.66602 33.833 12.999 44.5zM23.002 298.999c9.33301 11.333 21.334 17 36.001 17
c14 0 25.667 -5.5 35 -16.5s13.833 -24.167 13.5 -39.5s-5.83301 -28 -16.5 -38c-10 -10.667 -20.833 -16 -32.5 -16s-22.5 5.33301 -32.5 16c-10 9.33301 -15.333 21.5 -16 36.5s3.66602 28.5 12.999 40.5z" />
    <glyph glyph-name="semicolon" unicode=";" horiz-adv-x="130" 
d="M37 656c10 10 22.3311 14.498 36.998 13.498s26.334 -6.83301 35.001 -17.5c14 -18.667 16.333 -39 7 -61s-24.666 -33 -45.999 -33c-12.667 0 -23.667 6.33301 -33 19s-13.833 26.334 -13.5 41.001s4.83301 27.334 13.5 38.001zM33.998 309.998
c2.66699 4.66699 15.3359 6.33008 38.0029 4.99707l34 -2l-2 -21c-0.666992 -13.333 -7.33398 -36.333 -20.001 -69c-8.66699 -23.333 -14.834 -37.166 -18.501 -41.499s-11.834 -6.83301 -24.501 -7.5c-17.333 -2 -27.333 -1 -30 3
c-2.66699 2.66699 -0.5 23.834 6.5 63.501s12.5 62.834 16.5 69.501z" />
    <glyph glyph-name="less" unicode="&#x3c;" horiz-adv-x="400" 
d="M193 635c121.333 61.333 185.332 92.334 191.999 93.001c5.33301 0 7.33301 -9 6 -27l-2 -28l-146 -69l-104.5 -51c-29 -14.667 -43.833 -23 -44.5 -25c-0.666992 -0.666992 1.5 -2.5 6.5 -5.5s11.667 -6.5 20 -10.5s17.5 -8.16699 27.5 -12.5l30.5 -13.5l28.5 -12.5
c8.66699 -3.66699 15.5 -6.83398 20.5 -9.50098s7.5 -4.33398 7.5 -5.00098c0 -3.33301 -18.667 -5 -56 -5c-18.667 0 -33 0.5 -43 1.5s-19.667 3.16699 -29 6.5s-23 9 -41 17c-26 11.333 -41.833 19.333 -47.5 24s-8.5 11.334 -8.5 20.001c0 9.33301 8.33301 19 25 29
s69.334 37.667 158.001 83z" />
    <glyph glyph-name="equal" unicode="=" horiz-adv-x="388" 
d="M12 601c1.33301 4 13.5 6.5 36.5 7.5s72.5 1.16699 148.5 0.5l182 -2v-46h-366l-2 15c-2 10.667 -1.66699 19 1 25zM16 434c0 4.66699 59.833 7 179.5 7s179.5 -2.33301 179.5 -7s-59.833 -7 -179.5 -7s-179.5 2.33301 -179.5 7z" />
    <glyph glyph-name="greater" unicode="&#x3e;" horiz-adv-x="404" 
d="M10 701c-0.666992 18 1.6709 27 7.00391 27s69.666 -30.333 192.999 -91c91.333 -44.667 145 -71.834 161 -81.501s24 -19.834 24 -30.501c0 -9.33301 -2.83301 -16.166 -8.5 -20.499s-21.834 -12.5 -48.501 -24.5c-24.667 -12 -43 -19.333 -55 -22s-30.667 -4 -56 -4
c-36.667 0 -55 1.66699 -55 5c0 1.33301 4.83301 4.33301 14.5 9l34.5 16l40 18c13.333 6 24.666 11.5 33.999 16.5s13.666 8.16699 12.999 9.5c-2 4.66699 -51.667 30.334 -149 77.001l-147 69z" />
    <glyph glyph-name="question" unicode="?" horiz-adv-x="333" 
d="M38 787c12 5.33301 25.498 8.83105 40.498 10.498s41.167 2.5 78.5 2.5c31.333 0 53 -0.333008 65 -1s21.333 -2 28 -4s14.334 -5.66699 23.001 -11c34 -23.333 51 -61.666 51 -114.999c0 -28.667 -5.33301 -52.667 -16 -72s-32.667 -44.333 -66 -75
c-36 -32 -58 -55 -66 -69c-4 -8 -8 -13.167 -12 -15.5s-11 -3.5 -21 -3.5c-31.333 0 -35.666 17.333 -12.999 52c12.667 18.667 31.667 40 57 64c21.333 20 36.833 36.167 46.5 48.5s16.5 23.5 20.5 33.5s6 22.333 6 37c0 37.333 -16 62.333 -48 75
c-42.667 16.667 -99.667 10.334 -171 -18.999c-7.33301 -3.33301 -14.333 3 -21 19c-6.66699 16.667 -10 26 -10 28s9.33301 7 28 15z" />
    <glyph glyph-name="at" unicode="@" horiz-adv-x="656" 
d="M180 778l38.999 20.9961l131 1h131l32 -19c42.667 -24.667 75.834 -59.5 99.501 -104.5s35.167 -95.167 34.5 -150.5c-0.666992 -29.333 -3 -48.166 -7 -56.499s-13.333 -13.166 -28 -14.499l-26 -2l5 43c8 78.667 -10.167 143.5 -54.5 194.5s-104.5 76.5 -180.5 76.5
c-90.667 0 -161.667 -27.667 -213 -83c-16.667 -17.333 -30 -34.666 -40 -51.999s-17.833 -36.666 -23.5 -57.999s-10.167 -46.333 -13.5 -75l-4 -42h-52l2 42c2.66699 60 19 115 49 165s69.667 88 119 114zM208.999 595.996c21.333 30 48.499 49.6689 81.499 59.002
s77.833 9 134.5 -1l43 -8l-3 -68c-0.666992 -43.333 -3 -75 -7 -95c-2 -12.667 -4.33301 -20.334 -7 -23.001s-11 -4.33398 -25 -5.00098l-27 -2l1 77l2 77l-46 2c-19.333 0.666992 -33.166 0.166992 -41.499 -1.5s-17.166 -5.5 -26.499 -11.5
c-29.333 -20 -46.333 -52.667 -51 -98l-5 -41h-52l-2 31c-2.66699 40 7.66602 76 30.999 108z" />
    <glyph glyph-name="A" unicode="A" horiz-adv-x="356" 
d="M151 779c4 6 14.668 8.33105 32.001 6.99805l26 -2l70 -180c47.333 -120 70 -181.333 68 -184c-2 -3.33301 -58 -5.16602 -168 -5.49902s-166.333 0.833984 -169 3.50098c-2 2 19.667 61 65 177s70.666 177.333 75.999 184zM266.001 455.998
c0 1.33301 -13 39.001 -39 113.001s-39 111.667 -39 113c0 4 -1.83301 7.16699 -5.5 9.5s-7.16699 2.16602 -10.5 -0.500977c-2.66699 -2.66699 -4 -7 -4 -13s-13 -44 -39 -114s-39 -106.667 -39 -110c0 -4.66699 29.333 -7 88 -7s88 3 88 9z" />
    <glyph glyph-name="B" unicode="B" horiz-adv-x="410" 
d="M12 773c1.33301 3.33301 10.6689 5.49609 28.002 6.49609s52.333 0.833008 105 -0.5c40 -0.666992 69.167 -1.5 87.5 -2.5s33 -2.5 44 -4.5s22.167 -5.33301 33.5 -10c8.66699 -3.33301 16.167 -6.66602 22.5 -9.99902s12.166 -7 17.499 -11s10 -8.33301 14 -13
s7.66699 -9.66699 11 -15s6.66602 -11.666 9.99902 -18.999c6 -15.333 9.16699 -34.166 9.5 -56.499s-2.83398 -40.833 -9.50098 -55.5c-4.66699 -12 -15 -25.5 -31 -40.5s-29.667 -23.833 -41 -26.5c-22.667 -5.33301 -19.334 -12.666 9.99902 -21.999
c14.667 -4 31.334 -14.167 50.001 -30.5s28 -28.833 28 -37.5c0 -4 -2 -6.83301 -6 -8.5s-12 -2.5 -24 -2.5c-5.33301 0 -9.83301 0.333008 -13.5 1l-10.5 2c-3.33301 0.666992 -6.66602 2 -9.99902 4s-6.5 4.16699 -9.5 6.5s-6.83301 5.5 -11.5 9.5
c-16 14 -36 23.667 -60 29s-58.667 7.33301 -104 6l-68 -2l-6 -52h-66l-2 173c-0.666992 116 0 176.667 2 182zM275.003 706.996c-14.667 7.33301 -49.5 12 -104.5 14s-83.833 -0.333008 -86.5 -7c-2 -6 -2.66699 -37.333 -2 -94l2 -85h85c24 0 42.667 0.5 56 1.5
s23.833 2.33301 31.5 4s15.167 4.16699 22.5 7.5c29.333 14 44 41 44 81c0 34.667 -16 60.667 -48 78z" />
    <glyph glyph-name="C" unicode="C" horiz-adv-x="449" 
d="M208 785c34 8.66699 81.166 9.33398 141.499 2.00098s90.5 -17.333 90.5 -30c0 -7.33301 -3.33301 -17.333 -10 -30c-4 -8 -7.66699 -13 -11 -15s-7.66602 -2.33301 -12.999 -1c-62 18 -111.667 25.333 -149 22s-70.666 -18.333 -99.999 -45
c-28 -24 -47.833 -52.333 -59.5 -85s-17.167 -73.667 -16.5 -123l2 -62h-71l-2 64c-0.666992 45.333 1 78 5 98c10.667 51.333 33.167 95.166 67.5 131.499s76.166 60.833 125.499 73.5z" />
    <glyph glyph-name="D" unicode="D" horiz-adv-x="484" 
d="M12 772c2 5.33301 37.832 8.16797 107.499 8.50098s117.834 -1.83398 144.501 -6.50098c43.333 -8 82.333 -25.667 117 -53s58.667 -59.333 72 -96c8.66699 -22.667 15 -50.667 19 -84s4.66699 -62.333 2 -87l-4 -36h-70l-1 78c-0.666992 22.667 -1.5 40.167 -2.5 52.5
s-2.5 22.833 -4.5 31.5s-5 17.667 -9 27c-19.333 42 -47.833 72 -85.5 90s-89.167 25.667 -154.5 23l-59 -2l-6 -300h-66l-2 173c-0.666992 116 0 176.333 2 181z" />
    <glyph glyph-name="E" unicode="E" horiz-adv-x="341" 
d="M12 773c2 5.33301 56.001 7.33301 162.001 6l158 -2v-52c-82.667 -2 -165.334 -4.33301 -248.001 -7v-183l235 -6v-53l-235 -6l-6 -52h-66l-2 173c-0.666992 115.333 0 176 2 182z" />
    <glyph glyph-name="F" unicode="F" horiz-adv-x="341" 
d="M12 773c2 5.33301 56.001 7.33398 162.001 6.00098l158 -2v-52c-82.667 -2 -165.334 -4.33301 -248.001 -7v-209l235 -6v-53l-116 -2l-116 -1l-6 -17c-3.33301 -7.33301 -6.83301 -11.833 -10.5 -13.5s-12.5 -1.83398 -26.5 -0.500977l-32 2l-2 173
c-0.666992 115.333 0 176 2 182z" />
    <glyph glyph-name="G" unicode="G" horiz-adv-x="498" 
d="M244 790c13.333 1.33301 41.6699 1.33203 85.0029 -0.000976562c37.333 -1.33301 71.166 -5.66602 101.499 -12.999s46.166 -15 47.499 -23c0.666992 -6 -3 -16 -11 -30l-13 -21l-41 14c-28 9.33301 -63.667 14 -107 14c-30.667 0 -51.5 -1 -62.5 -3s-26.5 -8 -46.5 -18
c-24.667 -12 -43.834 -25.167 -57.501 -39.5s-26.5 -34.5 -38.5 -60.5c-7.33301 -15.333 -12 -29.666 -14 -42.999s-3.33301 -37 -4 -71l-2 -78h-69l-2 68c-1.33301 48.667 3.66699 90.167 15 124.5s30.333 66.166 57 95.499c39.333 42 93.333 70 162 84zM293.004 496.999
c1.33301 4 8.33203 6.49805 20.999 7.49805s39 1.16699 79 0.5l96 -2v-85l-31 -2c-14 -1.33301 -23 -1.16602 -27 0.500977s-7.33301 6.16699 -10 13.5c-3.33301 8 -8 12.833 -14 14.5s-23.667 2.83398 -53 3.50098l-61 2l-2 19c-1.33301 12 -0.666016 21.333 2.00098 28z
" />
    <glyph glyph-name="H" unicode="H" horiz-adv-x="459" 
d="M12 773c2 5.33301 13.333 7.33301 34 6l32 -2l6 -242h301l6 242h59v-359h-59l-6 52h-301l-6 -52h-66l-2 173c-0.666992 116 0 176.667 2 182z" />
    <glyph glyph-name="I" unicode="I" horiz-adv-x="87" 
d="M12 773c2 5.33301 13.333 7.33301 34 6l32 -2v-359h-66l-2 173c-0.666992 116 0 176.667 2 182z" />
    <glyph glyph-name="J" unicode="J" horiz-adv-x="80" 
d="M12 773c2 5.33301 12.333 7.33301 31 6l28 -2v-359h-59l-2 173c-0.666992 116 0 176.667 2 182z" />
    <glyph glyph-name="K" unicode="K" horiz-adv-x="423" 
d="M12 759c2 6 13.332 8.33203 33.999 6.99902l32 -2l2 -135c0.666992 -90.667 2.66699 -136 6 -136s47 45.667 131 137l126 137h35c24 0 36 -1.66699 36 -5c0 -0.666992 -5.33301 -7.16699 -16 -19.5l-39.5 -44.5l-51.5 -56.5l-51.5 -56.5l-40 -43.5l-16.5 -17.5
c-4 -5.33301 -4.33301 -11.333 -1 -18s13 -21 29 -43c24.667 -32 37 -50.333 37 -55s-12.667 -7 -38 -7c-18.667 0 -30.667 1.33301 -36 4s-13.333 11.334 -24 26.001c-14 19.333 -23.667 29 -29 29s-17.666 -9.66699 -36.999 -29c-13.333 -14 -23 -22.5 -29 -25.5
s-15.667 -3.83301 -29 -2.5l-30 2l-2 173c-0.666992 116 0 176.333 2 181z" />
    <glyph glyph-name="L" unicode="L" horiz-adv-x="87" 
d="M12 759c2 6 13.333 8.33301 34 7l32 -2v-359h-66l-2 173c-0.666992 116 0 176.333 2 181z" />
    <glyph glyph-name="M" unicode="M" horiz-adv-x="596" 
d="M12 759c2 6 19.667 8.33301 53 7l49 -2l69 -176c45.333 -117.333 66 -178 62 -182s-15 -5 -33 -3l-28 2l-53 139c-36 92 -55 138 -57 138s-3 -46 -3 -138v-139h-59l-2 173c-0.666992 116 0 176.333 2 181zM487 759c5.33301 6 23.332 8.33105 53.999 6.99805l46 -2v-359
h-65v139c0 92 -1.16699 138 -3.5 138s-21.166 -46.333 -56.499 -139l-54 -138l-24 -2c-16 -2 -26 -0.666992 -30 4c-2.66699 2.66699 17 59.834 59 171.501s66.667 171.834 74 180.501z" />
    <glyph glyph-name="N" unicode="N" horiz-adv-x="472" 
d="M12 759c2 6 15.666 8.33203 40.999 6.99902l37 -2l116 -176c76.667 -117.333 114 -177.666 112 -180.999c-1.33301 -4 -13.666 -6 -36.999 -6h-34l-84 131c-57.333 87.333 -87 131 -89 131c-2.66699 0 -3.66699 -43 -3 -129v-129h-59l-2 173
c-0.666992 116 0 176.333 2 181zM403.999 758.999c2 6 12.333 8.33301 31 7l28 -2v-359h-59l-2 173c-0.666992 116 0 176.333 2 181z" />
    <glyph glyph-name="O" unicode="O" horiz-adv-x="552" 
d="M192 770c24.667 6.66699 49.999 9.99609 75.999 9.99609c74 0.666992 133.833 -18.166 179.5 -56.499s75.167 -94.166 88.5 -167.499c5.33301 -27.333 7.66602 -57.666 6.99902 -90.999s-4 -52.666 -10 -57.999c-4 -4.66699 -15.333 -6 -34 -4l-29 2l2 41
c1.33301 28 -0.5 58.667 -5.5 92s-11.833 59.666 -20.5 78.999c-9.33301 22.667 -23.666 42.5 -42.999 59.5s-41 28.833 -65 35.5c-37.333 11.333 -76.5 11.833 -117.5 1.5s-70.833 -27.833 -89.5 -52.5c-18.667 -24 -31.167 -47.167 -37.5 -69.5
s-10.166 -56.833 -11.499 -103.5l-2 -87l-68 4l-2 68c-0.666992 38 1 69.333 5 94s11.667 49.334 23 74.001c30.667 66.667 82 109.667 154 129z" />
    <glyph glyph-name="P" unicode="P" horiz-adv-x="389" 
d="M12 759c2.66699 7.33301 42.333 9.83398 119 7.50098s125 -7.16602 145 -14.499c32 -12 56.167 -28.667 72.5 -50s26.5 -49.333 30.5 -84c4.66699 -46 -4.5 -85.833 -27.5 -119.5s-57.5 -57.834 -103.5 -72.501c-10 -2.66699 -37.5 -6.33398 -82.5 -11.001
s-85.167 -7.66699 -120.5 -9l-33 -1l-2 173c-0.666992 116 0 176.333 2 181zM253.999 689.001c-20 9.33301 -52.501 15.667 -97.501 19s-69.167 1 -72.5 -7c-2 -5.33301 -2.66699 -44.333 -2 -117l2 -108h66c28.667 0.666992 48.667 2 60 4s24 6.33301 38 13
c20 10.667 34.333 22 43 34s14.334 29 17.001 51c5.33301 54.667 -12.667 91.667 -54 111z" />
    <glyph glyph-name="Q" unicode="Q" horiz-adv-x="553" 
d="M192 770c35.333 9.33301 73.001 12.1689 113.001 8.50195s75.333 -13.5 106 -29.5c13.333 -6.66699 29.333 -19 48 -37s32.667 -34.667 42 -50c16 -25.333 28.167 -62.833 36.5 -112.5s9.16602 -89.167 2.49902 -118.5l-6 -26h-64l2 41c1.33301 28 -0.5 58.667 -5.5 92
s-11.833 59.666 -20.5 78.999c-9.33301 21.333 -23.333 40.666 -42 57.999c-25.333 23.333 -56.666 37.833 -93.999 43.5s-73.333 2.16699 -108 -10.5s-61.334 -32.667 -80.001 -60c-15.333 -22.667 -25.333 -43.834 -30 -63.501s-7.66699 -53.167 -9 -100.5l-3 -83l-68 4
l-2 68c-0.666992 26 -0.166992 48.5 1.5 67.5s4.5 36.333 8.5 52s10 31.834 18 48.501c30.667 66.667 82 109.667 154 129z" />
    <glyph glyph-name="R" unicode="R" horiz-adv-x="389" 
d="M12 759c1.33301 4 10.1641 6.33301 26.4971 7s48.5 0.666992 96.5 0c68 -1.33301 113.667 -5 137 -11s45.333 -19 66 -39c22.667 -22 36.334 -51.333 41.001 -88s-0.666016 -70.334 -15.999 -101.001c-7.33301 -14.667 -19.166 -29.334 -35.499 -44.001
s-30.5 -23.667 -42.5 -27c-7.33301 -2 -12 -6.83301 -14 -14.5s0 -13.5 6 -17.5c4 -2 6 -6.66699 6 -14c0 -4.66699 -5.16699 -7.66699 -15.5 -9s-21.666 -0.666016 -33.999 2.00098s-20.833 6.33398 -25.5 11.001c-4.66699 6 -11 9.66699 -19 11s-23.667 2 -47 2
c-24 0 -39.5 -0.666992 -46.5 -2s-11.833 -5 -14.5 -11c-3.33301 -6 -7.33301 -9.66699 -12 -11s-13.334 -1.33301 -26.001 0l-31 2l-2 173c-0.666992 116 0 176.333 2 181zM261.998 690c-18 9.33301 -51.501 15.3311 -100.501 17.998s-74.833 0.333984 -77.5 -6.99902
c-2 -5.33301 -2.66699 -42 -2 -110l2 -101h72c29.333 0 50.333 0.833008 63 2.5s24 5.16699 34 10.5c17.333 8.66699 30.333 19.334 39 32.001s14 29 16 49c4.66699 52 -10.666 87.333 -45.999 106z" />
    <glyph glyph-name="S" unicode="S" horiz-adv-x="358" 
d="M131 775c22.667 6 62.668 5.49805 120.001 -1.50195s89 -15.5 95 -25.5c1.33301 -2 0.833008 -7.33301 -1.5 -16s-5.16602 -17 -8.49902 -25s-6 -12 -8 -12s-20 4.33301 -54 13c-62 16 -110 16.333 -144 1c-22.667 -10 -38.334 -24.667 -47.001 -44
s-9.33398 -40.666 -2.00098 -63.999c10.667 -31.333 46 -58.666 106 -81.999c77.333 -30 126.333 -56.667 147 -80c12 -14.667 16.833 -24.667 14.5 -30s-13.5 -8 -33.5 -8c-22.667 0 -51.334 8.66699 -86.001 26c-39.333 18.667 -71.666 33 -96.999 43
c-26 10.667 -48.833 24 -68.5 40s-33.5 33 -41.5 51c-7.33301 16 -11.333 37.833 -12 65.5s2.33301 49.167 9 64.5c7.33301 18 21 34.5 41 49.5s43.667 26.5 71 34.5z" />
    <glyph glyph-name="T" unicode="T" horiz-adv-x="453" 
d="M12 758c1.33301 4 15.502 6.5 42.502 7.5s85.5 1.16699 175.5 0.5l214 -2v-52c-58.667 -2.66699 -117.334 -5 -176.001 -7c-2.66699 -100 -5 -200 -7 -300h-65c-2.66699 100 -5 200 -7 300c-58.667 2 -117.334 4.33301 -176.001 7l-2 18c-2 12.667 -1.66699 22 1 28z" />
    <glyph glyph-name="U" unicode="U" horiz-adv-x="466" 
d="M12 766c2 5.33301 13.333 7.66602 34 6.99902l32 -2v-360h-66l-2 173c-0.666992 116.667 0 177.334 2 182.001zM391 766c2 5.33301 13.333 7.66602 34 6.99902l32 -2v-360h-66l-2 173c-0.666992 116.667 0 177.334 2 182.001z" />
    <glyph glyph-name="V" unicode="V" horiz-adv-x="493" 
d="M10 771c2.66699 2.66699 14.667 3.33203 36 1.99902l32 -2l61 -173c40.667 -113.333 61 -174 61 -182c0 -6 -11 -8.33301 -33 -7l-33 2l-64 178c-42.667 118.667 -62.667 179.334 -60 182.001zM418 765.998c3.33301 4 14.5 6.50195 33.5 7.50195s29.833 -0.5 32.5 -4.5
c2 -4 -18.333 -64.667 -61 -182l-63 -176l-34 -2c-22.667 -1.33301 -34 1 -34 7c0 5.33301 20 63.666 60 174.999s62 169.666 66 174.999z" />
    <glyph glyph-name="W" unicode="W" horiz-adv-x="743" 
d="M10 768c2.66699 4 13.667 5.83008 33 5.49707s30 -2.5 32 -6.5c4 -6.66699 20.333 -67.167 49 -181.5s42 -172.166 40 -173.499c-2.66699 -3.33301 -13.167 -4.66602 -31.5 -3.99902s-28.5 2.33398 -30.5 5.00098c-4 6 -20.667 66 -50 180s-43.333 172.333 -42 175z
M330 765.997c2 5.33301 13.499 8.00195 34.499 8.00195s34.167 -2.66699 39.5 -8c2.66699 -4 21.167 -60.833 55.5 -170.5s51.833 -168.834 52.5 -177.501c0 -4.66699 -10.333 -7 -31 -7h-33l-37 124c-25.333 82.667 -39.666 124.667 -42.999 126
c-4 1.33301 -9 -9.33398 -15 -32.001c-3.33301 -17.333 -15 -59.333 -35 -126l-28 -92l-31 -2c-20.667 -1.33301 -31 1 -31 7c0 2 7.66699 29.667 23 83l48 165c16.667 56.667 27 90.667 31 102zM667.999 765.999c2.66699 3.33301 9.50098 5.50195 20.501 6.50195
s21.5 0.666992 31.5 -1s14.667 -4.16699 14 -7.5c-1.33301 -12 -16.833 -72.167 -46.5 -180.5s-45.834 -164.166 -48.501 -167.499c-4 -4.66699 -14.333 -7.33398 -31 -8.00098s-26.334 1 -29.001 5c-2.66699 3.33301 10.333 61.666 39 174.999
s45.334 172.666 50.001 177.999z" />
    <glyph glyph-name="X" unicode="X" horiz-adv-x="440" 
d="M10 771c2.66699 2.66699 15.001 3.33301 37.001 2l32 -2l63 -100c41.333 -67.333 65.666 -104 72.999 -110c4.66699 -4.66699 11.667 -1 21 11c8.66699 10.667 28.667 40.667 60 90l71 112h30c20 0 31.333 -1.33301 34 -4c3.33301 -2.66699 -24.667 -48.667 -84 -138
l-88 -134l26 -40c18 -26 25.667 -41 23 -45c-2.66699 -3.33301 -13 -5 -31 -5c-17.333 0 -31.666 5.33301 -42.999 16l-18 17l-11 -17c-4.66699 -6.66699 -9.5 -11 -14.5 -13s-13.167 -3 -24.5 -3c-18 0 -28.667 1.33301 -32 4
c-2.66699 2.66699 3.66602 15.334 18.999 38.001c14.667 23.333 22 38.666 22 45.999c0 6.66699 -28.333 53.667 -85 141c-56 86 -82.667 130.667 -80 134z" />
    <glyph glyph-name="Y" unicode="Y" horiz-adv-x="463" 
d="M10 767c0 3.33301 5.33301 5.50098 16 6.50098s21.834 0.666992 33.501 -1s18.834 -3.83398 21.501 -6.50098c5.33301 -7.33301 30.666 -54.333 75.999 -141c16 -30.667 28.333 -53.5 37 -68.5l23 -39c6.66699 -11 10.834 -16.5 12.501 -16.5h7.5
c5.33301 5.33301 31.666 52 78.999 140l70 130l34 2c22.667 1.33301 34 -0.333984 34 -5.00098c0 -3.33301 -30.333 -61.166 -91 -173.499s-94 -171.833 -100 -178.5c-4.66699 -6 -16.334 -8.33301 -35.001 -7l-29 2l-95 175c-62.667 116.667 -94 177 -94 181z" />
    <glyph glyph-name="Z" unicode="Z" horiz-adv-x="403" 
d="M12 765c1.33301 4 13.833 6.5 37.5 7.5s74.834 1.16699 153.501 0.5l189 -2l2 -27c0.666992 -12 -4.33301 -27.333 -15 -46s-39.667 -63 -87 -133l-103 -154h-34c-22.667 0 -34.334 1.66699 -35.001 5s29 51.333 89 144c60 90 91 139 93 147
c0.666992 1.33301 -1 2.5 -5 3.5s-11.667 2 -23 3s-26 1.66699 -44 2s-42 0.5 -72 0.5l-145 2l-2 19c-2 12 -1.66699 21.333 1 28z" />
    <glyph glyph-name="bracketleft" unicode="[" horiz-adv-x="1019" 
d="M10 -69.5c0 4.33301 166.667 6.5 500 6.5s500 -2.16699 500 -6.5s-166.667 -6.5 -500 -6.5s-500 2.16699 -500 6.5z" />
    <glyph glyph-name="bracketright" unicode="]" horiz-adv-x="1019" 
d="M10 -69.5c0 4.33301 166.667 6.5 500 6.5s500 -2.16699 500 -6.5s-166.667 -6.5 -500 -6.5s-500 2.16699 -500 6.5z" />
    <glyph glyph-name="a" unicode="a" horiz-adv-x="313" 
d="M79 627c26 7.33301 56 9.83203 90 7.49902s59.667 -8.5 77 -18.5c23.333 -12 39 -28 47 -48s11.667 -50.667 11 -92l-2 -65l-142 -2c-95.333 -0.666992 -143 1 -143 5c0 8 19 16 57 24s82.333 13.667 133 17l29 2l2 31c3.33301 42.667 -9.83398 71.334 -39.501 86.001
s-71.167 13 -124.5 -5l-44 -15l-10 13c-10.667 15.333 -12.167 26.833 -4.5 34.5s28.834 16.167 63.501 25.5z" />
    <glyph glyph-name="b" unicode="b" horiz-adv-x="402" 
d="M11 606l-1 193.997h65v-108c0 -72 2 -108 6 -108c3.33301 0 8.33301 3.66699 15 11c5.33301 6.66699 16.666 14.667 33.999 24c19.333 10 46.833 15 82.5 15s62.834 -5 81.501 -15c33.333 -17.333 58.333 -44 75 -80c4 -8.66699 7.83301 -20 11.5 -34
s6.5 -27.167 8.5 -39.5s3.33301 -23.666 4 -33.999s-0.333008 -16.5 -3 -18.5c-4 -4 -15.333 -5.33301 -34 -4l-29 2l-5 43c-3.33301 26.667 -10 50.334 -20 71.001c-13.333 28 -36 46.333 -68 55s-63 5.33398 -93 -9.99902c-36 -18 -57.333 -56 -64 -114l-5 -45h-59z" />
    <glyph glyph-name="c" unicode="c" horiz-adv-x="326" 
d="M132 624c27.333 9.33301 62.0039 12.8311 104.004 10.498s68 -9.16602 78 -20.499c2.66699 -5.33301 3.16699 -12.333 1.5 -21s-5.16699 -16.5 -10.5 -23.5s-10.333 -9.83301 -15 -8.5c-30.667 12 -61.334 17 -92.001 15s-54.334 -10.667 -71.001 -26
c-15.333 -13.333 -26.333 -27 -33 -41s-11.334 -33 -14.001 -57l-5 -41h-65l1 36c1.33301 40.667 13.166 77.334 35.499 110.001s50.833 55 85.5 67z" />
    <glyph glyph-name="d" unicode="d" horiz-adv-x="401" 
d="M327 692l-0.00195312 108.004h65l-1 -194l-2 -195h-59l-6 33c-4 23.333 -7.66699 41.166 -11 53.499s-7.33301 22.5 -12 30.5s-11 16 -19 24c-21.333 21.333 -47.166 32.166 -77.499 32.499s-57.166 -9.83398 -80.499 -30.501
c-9.33301 -8.66699 -16.833 -17.667 -22.5 -27s-10.334 -20.333 -14.001 -33s-6.5 -28.334 -8.5 -47.001l-4 -36h-65l1 36c0.666992 52 15.834 95.167 45.501 129.5s67.834 53.833 114.501 58.5s87.667 -6 123 -32c17.333 -12.667 27.166 -19 29.499 -19s3.5 36 3.5 108z
" />
    <glyph glyph-name="e" unicode="e" horiz-adv-x="385" 
d="M128 630c34 13.333 69.333 16.5 106 9.5s66.667 -22.5 90 -46.5c32.667 -33.333 49.667 -78 51 -134l1 -41h-366l1 38c1.33301 37.333 13 72.5 35 105.5s49.333 55.833 82 68.5zM258 574c-13.333 8.66699 -31.1709 13.5 -53.5039 14.5s-41.833 -2.5 -58.5 -10.5
c-15.333 -6.66699 -29.166 -19.167 -41.499 -37.5s-19.166 -36.5 -20.499 -54.5l-2 -23h222l-2 27c-1.33301 16.667 -6.16602 33 -14.499 49s-18.166 27.667 -29.499 35z" />
    <glyph glyph-name="f" unicode="f" horiz-adv-x="308" 
d="M160 769c18 8 44.001 10.999 78.001 8.99902s53.167 -5.16699 57.5 -9.5s5.16602 -13.5 2.49902 -27.5l-5 -20l-40 4c-36.667 4 -62.167 -0.5 -76.5 -13.5s-21.833 -37.5 -22.5 -73.5v-44l104 -6v-46c-34.667 -2 -69.334 -4.33301 -104.001 -7
c-2 -54 -4.33301 -108.333 -7 -163h-59l-6 163l-36 4c-15.333 1.33301 -25.166 3 -29.499 5s-6.5 5.66699 -6.5 11c0 8.66699 9.66699 16.334 29 23.001c22 7.33301 35.167 13.5 39.5 18.5s6.5 17.167 6.5 36.5c0 66 25 111.333 75 136z" />
    <glyph glyph-name="g" unicode="g" horiz-adv-x="397" 
d="M106 635c11.333 3.33301 57.166 4.83105 137.499 4.49805s126.166 -2.5 137.499 -6.5c6 -2 8.33301 -9 7 -21c-1.33301 -8 -3.66602 -13.333 -6.99902 -16s-12 -4.66699 -26 -6c-21.333 -3.33301 -33.833 -6.66602 -37.5 -9.99902s-2.5 -10.666 3.5 -21.999
c6 -12 9 -31.5 9 -58.5s-3 -47.833 -9 -62.5c-3.33301 -7.33301 -6.16602 -12.5 -8.49902 -15.5s-5.66602 -5 -9.99902 -6s-12 -1.5 -23 -1.5s-18.667 0.166992 -23 0.5s-8 1.33301 -11 3s-3.83301 4.16699 -2.5 7.5s4.33301 8 9 14c7.33301 10 11.666 28 12.999 54
s-1.33398 45.333 -8.00098 58c-10 18.667 -26.167 31.834 -48.5 39.501s-45.166 8.5 -68.499 2.5s-40.333 -18 -51 -36c-9.33301 -14 -13.666 -35.167 -12.999 -63.5s5.66699 -47.833 15 -58.5c4 -4.66699 6.83301 -8.16699 8.5 -10.5s1.5 -4.33301 -0.5 -6
s-5.5 -2.83398 -10.5 -3.50098s-12.5 -1 -22.5 -1c-16.667 0 -27.334 1 -32.001 3s-9.33398 7.66699 -14.001 17c-7.33301 14 -10.666 35.333 -9.99902 64s5 51 13 67c8 15.333 19.667 29.5 35 42.5s31.333 22.167 48 27.5z" />
    <glyph glyph-name="h" unicode="h" horiz-adv-x="382" 
d="M11 609l-1 190.999h65v-105c0 -69.333 1.33301 -104 4 -104c2 0 10.667 5.66699 26 17c30 22.667 66.667 34.5 110 35.5s79.333 -9.5 108 -31.5c17.333 -12.667 29.833 -29.667 37.5 -51s11.5 -49.666 11.5 -84.999l1 -58h-66l-3 59
c-1.33301 23.333 -3.66602 41.5 -6.99902 54.5s-8.33301 23.333 -15 31s-16.334 14.167 -29.001 19.5c-15.333 6.66699 -35.5 9 -60.5 7s-44.833 -7.33301 -59.5 -16c-32 -18 -50.667 -55.333 -56 -112l-5 -43h-59z" />
    <glyph glyph-name="i" unicode="i" horiz-adv-x="97" 
d="M20 782c7.33301 7.33301 16.167 10.999 26.5 10.999s19.833 -4.33301 28.5 -13c6.66699 -6.66699 10.667 -14.5 12 -23.5s0 -17 -4 -24s-9.16699 -12.833 -15.5 -17.5s-13.833 -6.66699 -22.5 -6s-16.667 4.33398 -24 11.001c-7.33301 6 -11 15.667 -11 29
s3.33301 24.333 10 33zM19.001 628.999c2 5.33301 12.333 7.33301 31 6l28 -2v-215h-59l-2 101c-0.666992 67.333 0 104 2 110z" />
    <glyph glyph-name="j" unicode="j" horiz-adv-x="97" 
d="M20 782c7.33301 7.33301 16.167 10.999 26.5 10.999s19.833 -4.33301 28.5 -13c6.66699 -6.66699 10.667 -14.5 12 -23.5s0 -17 -4 -24s-9.16699 -12.833 -15.5 -17.5s-13.833 -6.66699 -22.5 -6s-16.667 4.33398 -24 11.001c-7.33301 6 -11 15.667 -11 29
s3.33301 24.333 10 33zM19.001 628.999c2 5.33301 12.333 7.33301 31 6l28 -2v-215h-59l-2 101c-0.666992 67.333 0 104 2 110z" />
    <glyph glyph-name="k" unicode="k" horiz-adv-x="346" 
d="M11 609l-1.00195 191.002h65v-184l1 -185l17 19c6.66699 8 38.334 42.667 95.001 104l78 83h36c23.333 0 35 -2 35 -6c0 -2.66699 -27.667 -33.334 -83 -92.001c-36.667 -38.667 -59.167 -63.5 -67.5 -74.5s-10.833 -19.167 -7.5 -24.5
c7.33301 -12 7.33301 -19.333 0 -22s-33.666 -3.33398 -78.999 -2.00098l-87 2z" />
    <glyph glyph-name="l" unicode="l" horiz-adv-x="84" 
d="M11 609l-1 191h65l-1 -191l-2 -191h-59z" />
    <glyph glyph-name="m" unicode="m" horiz-adv-x="636" 
d="M145 635c14.667 5.33301 37.501 7.16895 68.501 5.50195s53.5 -6.16699 67.5 -13.5c16 -8 29.333 -18.667 40 -32l17 -20l25 24c30 29.333 70 44 120 44c50.667 0 87.834 -14.333 111.501 -43s34.167 -72.334 31.5 -131.001l-2 -51h-58l-4 60c-2 34 -6.33301 58 -13 72
s-18.667 24.667 -36 32c-32.667 13.333 -66.334 11.333 -101.001 -6c-20 -10 -34.167 -23 -42.5 -39s-13.833 -39.333 -16.5 -70l-3 -49h-65l-4 59c-2 34 -6.33301 58.167 -13 72.5s-18.667 25.166 -36 32.499c-23.333 9.33301 -46.833 11.333 -70.5 6
s-43.167 -17.333 -58.5 -36c-17.333 -20 -28 -57 -32 -111c-1.33301 -11.333 -3.33301 -18 -6 -20s-11.334 -3 -26.001 -3h-29v215l21 2c10.667 1.33301 18 -0.166992 22 -4.5s9 -16.166 15 -35.499c0.666992 -2.66699 1.5 -4.5 2.5 -5.5s2.66699 -1.16699 5 -0.5
s5.16602 2.16699 8.49902 4.5s8 6.16602 14 11.499c16.667 14 32.334 24 47.001 30z" />
    <glyph glyph-name="n" unicode="n" horiz-adv-x="378" 
d="M151 633c33.333 10.667 67.665 12.835 102.998 6.50195s61.333 -19.166 78 -38.499c14 -15.333 23.667 -32.333 29 -51s8 -44.334 8 -77.001v-55h-65l-3 59c-2 34 -6.5 58.167 -13.5 72.5s-19.5 25.166 -37.5 32.499c-15.333 6.66699 -35.5 9 -60.5 7
s-44.833 -7.33301 -59.5 -16c-31.333 -18 -50 -54.667 -56 -110l-5 -45h-59v215l20 2c10.667 1.33301 19.334 -1.33398 26.001 -8.00098s10 -16 10 -28c0 -9.33301 1.33301 -14 4 -14c2.66699 0.666992 12 7.33398 28 20.001c16.667 13.333 34.334 22.666 53.001 27.999z
" />
    <glyph glyph-name="o" unicode="o" horiz-adv-x="416" 
d="M135 639c21.333 7.33301 48.3301 10.165 80.9971 8.49805s58.667 -6.83398 78 -15.501c20.667 -9.33301 39 -22.333 55 -39s28.833 -36 38.5 -58s15.167 -45.333 16.5 -70l3 -45l-63 4l-8 44c-5.33301 30 -11.666 52.333 -18.999 67c-10.667 22 -28 38.5 -52 49.5
s-49.5 14.5 -76.5 10.5s-49.833 -14.667 -68.5 -32c-12 -11.333 -21 -24.666 -27 -39.999s-10.667 -36.333 -14 -63l-4 -36h-65l1 34c0.666992 40.667 12.834 78.334 36.501 113.001s52.834 57.334 87.501 68.001z" />
    <glyph glyph-name="p" unicode="p" horiz-adv-x="399" 
d="M157 644c10.667 3.33301 31.332 4.33398 61.999 3.00098c70.667 -3.33301 119.667 -35 147 -95c7.33301 -18.667 13.666 -43.334 18.999 -74.001s6 -48 2 -52s-15.667 -5.33301 -35 -4l-28 2l-7 47c-4.66699 28 -10.667 50 -18 66c-13.333 25.333 -34 43 -62 53
s-56 10.333 -84 1s-48.667 -26.666 -62 -51.999c-8 -16.667 -13.667 -39.667 -17 -69l-5 -46h-59v216l20 2c10.667 1.33301 19.334 -1.33398 26.001 -8.00098s10 -16 10 -28c0 -18 7.66699 -18.333 23 -1c14.667 15.333 37.334 28.333 68.001 39z" />
    <glyph glyph-name="q" unicode="q" horiz-adv-x="398" 
d="M137 644c24.667 7.33301 53.166 7.8291 85.499 1.49609s58.833 -17.833 79.5 -34.5c16.667 -13.333 26 -20 28 -20c2.66699 0 4 6.33301 4 19c0 24 12.333 34.667 37 32l18 -2v-216l-28 -2c-12 -0.666992 -20 -0.166992 -24 1.5s-7.33301 6.16699 -10 13.5
c-4.66699 10.667 -7 22.334 -7 35.001c0 26.667 -7.33301 51.334 -22 74.001s-33 37.334 -55 44.001c-25.333 7.33301 -47.833 9 -67.5 5s-38.167 -14.667 -55.5 -32c-12 -11.333 -21 -24.666 -27 -39.999s-10.667 -36.333 -14 -63l-4 -36h-65l1 39
c2 44 14.333 82.333 37 115s52.334 54.667 89.001 66z" />
    <glyph glyph-name="r" unicode="r" horiz-adv-x="264" 
d="M158 642c16.667 4.66699 35.6699 6.99707 57.0029 6.99707c19.333 0.666992 31.333 -1.66602 36 -6.99902s4.66699 -16.666 0 -33.999c-2.66699 -10 -5.83398 -15.833 -9.50098 -17.5s-12.5 -1.83398 -26.5 -0.500977c-12.667 0.666992 -25.5 -0.666016 -38.5 -3.99902
s-25.167 -8.33301 -36.5 -15s-21 -14.667 -29 -24c-12 -13.333 -20.667 -26.166 -26 -38.499s-9.33301 -29.5 -12 -51.5l-4 -33h-59v216l22 2c8.66699 0.666992 14.667 0.166992 18 -1.5s6.33301 -6.16699 9 -13.5c4.66699 -10 7 -22.333 7 -37c0 -12.667 1 -19 3 -19
c1.33301 0 12.666 10.667 33.999 32s39.666 34.333 54.999 39z" />
    <glyph glyph-name="s" unicode="s" horiz-adv-x="314" 
d="M13 559c6 28 23.5 49.833 52.5 65.5s63.5 24.167 103.5 25.5c14 0 31.5 -1.5 52.5 -4.5s39.667 -6.66699 56 -11s25.5 -7.83301 27.5 -10.5c2.66699 -4.66699 0.333984 -15 -6.99902 -31c-6 -16 -13 -22 -21 -18c-10 3.33301 -22 6.83301 -36 10.5s-27.833 6.5 -41.5 8.5
s-24.834 3 -33.501 3c-25.333 0 -47.166 -6 -65.499 -18s-27.5 -26 -27.5 -42c0 -12 9.5 -25 28.5 -39s44.833 -27.333 77.5 -40c42.667 -17.333 64 -27.666 64 -30.999c0 -4 -23.333 -6 -70 -6c-30 0 -50.667 0.833008 -62 2.5s-22 5.5 -32 11.5
c-19.333 11.333 -34.333 23.166 -45 35.499s-17.834 25.833 -21.501 40.5s-3.5 30.667 0.5 48z" />
    <glyph glyph-name="t" unicode="t" horiz-adv-x="270" 
d="M99 743c2 4 8.66797 5.00684 20.001 3.00684c8.66699 -0.666992 13.834 -3.33398 15.501 -8.00098s3.5 -19 5.5 -43l3 -49l118 -6v-46l-118 -6c-2 -54.667 -4.33301 -109.334 -7 -164.001h-65l-6 164l-27 3c-6.66699 0.666992 -12 1.66699 -16 3
s-6.83301 3.16602 -8.5 5.49902s-2.83398 5.16602 -3.50098 8.49902c-0.666992 6 1 11 5 15s12.333 9.33301 25 16c7.33301 3.33301 12.666 6.16602 15.999 8.49902s6.5 4.66602 9.5 6.99902s5.5 5.5 7.5 9.5s3.66699 8.33301 5 13l6 20
c7.33301 27.333 12.333 42.666 15 45.999z" />
    <glyph glyph-name="u" unicode="u" horiz-adv-x="381" 
d="M12 635c2 6 12.333 8.33301 31 7l28 -2v-216h-59l-2 101c-0.666992 68 0 104.667 2 110zM313 635c2 6 12.333 8.33301 31 7l28 -2v-216h-59l-2 101c-0.666992 68 0 104.667 2 110z" />
    <glyph glyph-name="v" unicode="v" horiz-adv-x="413" 
d="M10 632c0 4.66699 1.66406 7.66699 4.99707 9s11 2 23 2c18.667 0 30.334 -2.66699 35.001 -8c6.66699 -7.33301 21.334 -43.5 44.001 -108.5s32.667 -98.833 30 -101.5c-3.33301 -3.33301 -14.666 -4.33301 -33.999 -3l-28 2l-37 98c-25.333 66 -38 102.667 -38 110z
M338.997 637c2.66699 4 13.6689 6.00098 33.002 6.00098s30 -2 32 -6c2 -3.33301 -8.66699 -37 -32 -101s-38 -99.667 -44 -107c-4 -4.66699 -14.333 -7.33398 -31 -8.00098s-26.334 1.33301 -29.001 6c-0.666992 1.33301 4.16602 18.333 14.499 51s21.5 66 33.5 100
s19.667 53.667 23 59z" />
    <glyph glyph-name="w" unicode="w" horiz-adv-x="628" 
d="M10 632c0 4.66699 1.83203 7.66699 5.49902 9s11.167 2 22.5 2c18.667 0 30.334 -2.66699 35.001 -8c4 -4.66699 14 -37.5 30 -98.5s24 -96.167 24 -105.5c0 -4.66699 -2 -7.5 -6 -8.5s-12.333 -1.16699 -25 -0.5l-31 2l-28 98c-18 66 -27 102.667 -27 110zM278.999 635
c5.33301 6 18.667 8.33105 40 6.99805l33 -2l31 -98c20.667 -64.667 31 -101.334 31 -110.001c0 -4.66699 -1.83301 -7.66699 -5.5 -9s-11.834 -1.66602 -24.501 -0.999023l-30 2l-17 60c-11.333 40 -19 60.667 -23 62
c-1.33301 0.666992 -3.16602 -1.66602 -5.49902 -6.99902s-5 -12.666 -8 -21.999l-9.5 -31l-18 -62l-25 -2c-16 -1.33301 -26.333 0 -31 4c-2 2 1.33301 19.167 10 51.5s18.5 65.333 29.5 99s18.5 53.167 22.5 58.5zM552 628.998c2.66699 6 6.16797 9.83398 10.501 11.501
s12.5 2.5 24.5 2.5c20 0 30.667 -1.33301 32 -4c1.33301 -4 -7.66699 -40.667 -27 -110l-30 -105l-26 -2c-16.667 -1.33301 -27 0 -31 4c-2 2 -0.166992 17.167 5.5 45.5s12.667 58.666 21 90.999s15.166 54.5 20.499 66.5z" />
    <glyph glyph-name="x" unicode="x" horiz-adv-x="381" 
d="M10 637c0 4.66699 11.332 6.33203 33.999 4.99902l35 -2l52 -77c34.667 -50.667 54.667 -76.334 60 -77.001c6 0 26.333 26.333 61 79l53 78h32c21.333 0 33 -1.66699 35 -5c1.33301 -3.33301 -23 -40.333 -73 -111l-75 -106h-35c-14 0 -23.667 0.833008 -29 2.5
s-9.66602 5.5 -12.999 11.5c-4.66699 8.66699 -28.667 43.334 -72 104.001s-65 93.334 -65 98.001z" />
    <glyph glyph-name="y" unicode="y" horiz-adv-x="417" 
d="M10 639c0 4.66699 1.83105 7.66797 5.49805 9.00098s12.834 1.33301 27.501 0l33 -2l41 -106c24 -61.333 35 -96 33 -104c-1.33301 -6.66699 -10.666 -9.33398 -27.999 -8.00098c-1.33301 0 -3 0.333008 -5 1l-26 2l-40 98c-27.333 66 -41 102.667 -41 110z
M338.998 642.001c2 5.33301 14.001 8 36.001 8s33 -3 33 -9c0 -6.66699 -12.667 -43.334 -38 -110.001l-38 -100l-28 -2c-18.667 -2 -30 -1 -34 3c-2.66699 2.66699 7.16602 35.834 29.499 99.501s35.5 100.5 39.5 110.5z" />
    <glyph glyph-name="z" unicode="z" horiz-adv-x="318" 
d="M12 641c1.33301 3.33301 11.3311 5.5 29.998 6.5s58.334 1.16699 119.001 0.5l146 -2l2 -22c0.666992 -10 -2.5 -21.5 -9.5 -34.5s-23.5 -37.5 -49.5 -73.5l-61 -85l-29 -2c-18.667 -2 -30 -1 -34 3c-3.33301 3.33301 12.334 29 47.001 77c34 48.667 51 75.334 51 80.001
c0.666992 1.33301 -0.833008 2.5 -4.5 3.5s-9.66699 2 -18 3s-19.166 1.66699 -32.499 2s-30 0.833008 -50 1.5c-64.667 0.666992 -99.334 3 -104.001 7c-2 1.33301 -3.33301 4.66602 -4 9.99902c-2 10 -1.66699 18.333 1 25z" />
    <glyph glyph-name="braceleft" unicode="{" horiz-adv-x="270" 
d="M196 784c18 6.66699 33.001 9.33594 45.001 8.00293c9.33301 -0.666992 15 -2.5 17 -5.5s3 -10.5 3 -22.5c0 -12.667 -1.33301 -20.334 -4 -23.001s-10.334 -5.33398 -23.001 -8.00098c-18.667 -4 -33 -11.333 -43 -22c-7.33301 -7.33301 -11.833 -16.5 -13.5 -27.5
s-3.5 -39.833 -5.5 -86.5c-1.33301 -38 -3.33301 -65.167 -6 -81.5s-7 -29 -13 -38s-16.667 -17.167 -32 -24.5c-5.33301 -2.66699 -11 -6 -17 -10s-10.667 -7 -14 -9s-8.66602 -3.5 -15.999 -4.5s-16.333 -1.16699 -27 -0.5c-15.333 0.666992 -25 2 -29 4
s-6.66699 6.33301 -8 13c-1.33301 9.33301 1 15 7 17l36 10c12 3.33301 21 6.83301 27 10.5s11 11 15 22s6.66699 24.167 8 39.5s2.66602 38.333 3.99902 69c1.33301 43.333 3 71.833 5 85.5s6 24.5 12 32.5c17.333 23.333 41.333 40.666 72 51.999z" />
    <glyph glyph-name="bar" unicode="|" horiz-adv-x="1019" 
d="M10 -69.5c0 4.33301 166.667 6.5 500 6.5s500 -2.16699 500 -6.5s-166.667 -6.5 -500 -6.5s-500 2.16699 -500 6.5z" />
    <glyph glyph-name="braceright" unicode="}" horiz-adv-x="279" 
d="M12 784c3.33301 10 18.3359 12.002 45.0029 6.00195s48.667 -16.333 66 -31c20 -16 32.667 -32.833 38 -50.5s9 -54.167 11 -109.5c2 -48.667 4 -78.167 6 -88.5s6.66699 -18.5 14 -24.5c10.667 -8 24 -13.667 40 -17c18 -2.66699 29 -5.33398 33 -8.00098
s5.66699 -7.66699 5 -15c-1.33301 -6.66699 -4 -11 -8 -13s-13.333 -3.33301 -28 -4c-22.667 -1.33301 -45.334 4 -68.001 16c-20.667 11.333 -34.834 21.5 -42.501 30.5s-13 21.5 -16 37.5s-5.16699 44.333 -6.5 85c-2 47.333 -3.83301 76.166 -5.5 86.499
s-6.83398 19.5 -15.501 27.5c-12 12.667 -26.333 20 -43 22c-10 1.33301 -16.667 3.33301 -20 6s-5.33301 8 -6 16c-2 12.667 -1.66699 22 1 28z" />
    <glyph glyph-name="asciitilde" unicode="~" horiz-adv-x="405" 
d="M66 545c17.333 5.33301 39.499 6.33008 66.499 2.99707s53.833 -10.666 80.5 -21.999c32.667 -14 58 -22.167 76 -24.5s35.333 0.833984 52 9.50098s28 16.667 34 24c11.333 13.333 18 9.33301 20 -12c0.666992 -3.33301 1 -7 1 -11c0 -11.333 -1.66699 -19.5 -5 -24.5
s-11 -11.167 -23 -18.5c-11.333 -8 -21.5 -13.167 -30.5 -15.5s-23.167 -3.5 -42.5 -3.5s-35.666 1.66699 -48.999 5s-33 10.333 -59 21c-36 14.667 -63.167 21.834 -81.5 21.501s-38.5 -8.16602 -60.5 -23.499c-19.333 -13.333 -30 -20 -32 -20s-3 8 -3 24
c0 14.667 5.33301 28.167 16 40.5s24 21.166 40 26.499z" />
    <glyph glyph-name="cent" unicode="&#xa2;" horiz-adv-x="1019" 
d="M10 -69.5c0 4.33301 166.667 6.5 500 6.5s500 -2.16699 500 -6.5s-166.667 -6.5 -500 -6.5s-500 2.16699 -500 6.5z" />
    <glyph glyph-name="sterling" unicode="&#xa3;" 
 />
    <glyph glyph-name="section" unicode="&#xa7;" horiz-adv-x="1019" 
d="M10 -69.5c0 4.33301 166.667 6.5 500 6.5s500 -2.16699 500 -6.5s-166.667 -6.5 -500 -6.5s-500 2.16699 -500 6.5z" />
    <glyph glyph-name="questiondown" unicode="&#xbf;" horiz-adv-x="1019" 
d="M10 -69.5c0 4.33301 166.667 6.5 500 6.5s500 -2.16699 500 -6.5s-166.667 -6.5 -500 -6.5s-500 2.16699 -500 6.5z" />
    <glyph glyph-name="Agrave" unicode="&#xc0;" 
 />
    <glyph glyph-name="Aacute" unicode="&#xc1;" 
 />
    <glyph glyph-name="Acircumflex" unicode="&#xc2;" 
 />
    <glyph glyph-name="Adieresis" unicode="&#xc4;" 
 />
    <glyph glyph-name="Ccedilla" unicode="&#xc7;" 
 />
    <glyph glyph-name="Egrave" unicode="&#xc8;" 
 />
    <glyph glyph-name="Eacute" unicode="&#xc9;" 
 />
    <glyph glyph-name="Ecircumflex" unicode="&#xca;" 
 />
    <glyph glyph-name="Edieresis" unicode="&#xcb;" 
 />
    <glyph glyph-name="Icircumflex" unicode="&#xce;" 
 />
    <glyph glyph-name="Idieresis" unicode="&#xcf;" 
 />
    <glyph glyph-name="Ntilde" unicode="&#xd1;" 
 />
    <glyph glyph-name="Oacute" unicode="&#xd3;" 
 />
    <glyph glyph-name="Ocircumflex" unicode="&#xd4;" 
 />
    <glyph glyph-name="Odieresis" unicode="&#xd6;" 
 />
    <glyph glyph-name="Ugrave" unicode="&#xd9;" 
 />
    <glyph glyph-name="Uacute" unicode="&#xda;" 
 />
    <glyph glyph-name="Ucircumflex" unicode="&#xdb;" 
 />
    <glyph glyph-name="Udieresis" unicode="&#xdc;" 
 />
    <glyph glyph-name="germandbls" unicode="&#xdf;" 
 />
    <glyph glyph-name="agrave" unicode="&#xe0;" 
 />
    <glyph glyph-name="aacute" unicode="&#xe1;" 
 />
    <glyph glyph-name="acircumflex" unicode="&#xe2;" 
 />
    <glyph glyph-name="adieresis" unicode="&#xe4;" 
 />
    <glyph glyph-name="ccedilla" unicode="&#xe7;" 
 />
    <glyph glyph-name="egrave" unicode="&#xe8;" 
 />
    <glyph glyph-name="eacute" unicode="&#xe9;" 
 />
    <glyph glyph-name="ecircumflex" unicode="&#xea;" 
 />
    <glyph glyph-name="edieresis" unicode="&#xeb;" 
 />
    <glyph glyph-name="icircumflex" unicode="&#xee;" 
 />
    <glyph glyph-name="idieresis" unicode="&#xef;" 
 />
    <glyph glyph-name="oacute" unicode="&#xf3;" 
 />
    <glyph glyph-name="ocircumflex" unicode="&#xf4;" 
 />
    <glyph glyph-name="odieresis" unicode="&#xf6;" 
 />
    <glyph glyph-name="ugrave" unicode="&#xf9;" 
 />
    <glyph glyph-name="uacute" unicode="&#xfa;" 
 />
    <glyph glyph-name="ucircumflex" unicode="&#xfb;" 
 />
    <glyph glyph-name="udieresis" unicode="&#xfc;" 
 />
    <glyph glyph-name="eogonek" unicode="&#x119;" horiz-adv-x="1019" 
d="M10 -69.5c0 4.33301 166.667 6.5 500 6.5s500 -2.16699 500 -6.5s-166.667 -6.5 -500 -6.5s-500 2.16699 -500 6.5z" />
    <glyph glyph-name="quoteright" unicode="&#x2019;" horiz-adv-x="130" 
d="M63 769c3.33301 8 6.16797 13.499 8.50098 16.499s5.33301 5 9 6s9.16699 1.5 16.5 1.5h24l-5 -27c-2.66699 -16 -9 -49.333 -19 -100l-15 -72l-34 -2c-22.667 -1.33301 -35.334 1.66699 -38.001 9c-2 4 3.16699 25.333 15.5 64s24.833 73.334 37.5 104.001z" />
    <glyph glyph-name="quotedblleft" unicode="&#x201c;" horiz-adv-x="259" 
d="M29 308c1.33301 5.33301 13.833 8.16797 37.5 8.50098s36.834 -1.83398 39.501 -6.50098c3.33301 -4.66699 -2.66699 -28 -18 -70l-21 -64l-25 -2c-16.667 -2 -27 -1 -31 3c-2 2.66699 -0.833008 20.667 3.5 54s9.16602 59 14.499 77zM179 311.002
c2.66699 4 14.998 5.33496 36.998 4.00195l34 -2l-2 -21c-0.666992 -13.333 -7 -36.333 -19 -69c-8.66699 -22.667 -15 -36.334 -19 -41.001s-11 -7.33398 -21 -8.00098c-19.333 -2 -30.166 0 -32.499 6s-0.166016 26.333 6.50098 61c8 40.667 13.333 64 16 70z" />
    <glyph glyph-name="quotedblright" unicode="&#x201d;" horiz-adv-x="259" 
d="M34 699c4.66699 10 8.33301 16.833 11 20.5s5.66699 6 9 7s9.66602 1.5 18.999 1.5c17.333 0 27 -1.66699 29 -5c2 -4 -0.333008 -25.333 -7 -64l-12 -58l-34 -2c-23.333 -1.33301 -36 1 -38 7c-1.33301 4 -1.16602 10.667 0.500977 20s4.5 20.5 8.5 33.5
s8.66699 26.167 14 39.5zM188.999 724c2 2.66699 12.6641 3.99805 31.9971 3.99805c8 0 14 -0.333008 18 -1s6.83301 -1.66699 8.5 -3s2.5 -3.66602 2.5 -6.99902c0 -8.66699 -3 -28.5 -9 -59.5s-10.333 -48.5 -13 -52.5c-3.33301 -4.66699 -15.666 -7.16699 -36.999 -7.5
s-33.333 1.83398 -36 6.50098c-1.33301 2.66699 2.83398 21 12.501 55s16.834 55.667 21.501 65z" />
    <glyph glyph-name="bullet" unicode="&#x2022;" horiz-adv-x="1019" 
d="M10 -69.5c0 4.33301 166.667 6.5 500 6.5s500 -2.16699 500 -6.5s-166.667 -6.5 -500 -6.5s-500 2.16699 -500 6.5z" />
    <glyph glyph-name="Euro" unicode="&#x20ac;" 
 />
    <glyph glyph-name=".null" horiz-adv-x="0" 
 />
    <glyph glyph-name="nonmarkingreturn" horiz-adv-x="333" 
 />
  </font>
</defs>
</svg>
